<svg width="53" height="36" viewBox="0 0 53 36" fill="none" xmlns="http://www.w3.org/2000/svg">
<path d="M26.0656 35.5738C14.0984 35.5738 4.54918 28.4836 0 17.7869C4.59017 7.09016 14.1393 0 26.0656 0C37.9918 0 47.582 7.09016 52.1722 17.7869C47.582 28.4836 37.9918 35.5738 26.0656 35.5738ZM26.0656 31.3115C35.5328 31.3115 43.6885 25.7787 47.5 17.7869C43.6885 9.79508 35.5328 4.2623 26.0656 4.2623C16.6394 4.2623 8.48361 9.79508 4.67213 17.7869C8.44263 25.7787 16.5984 31.3115 26.0656 31.3115ZM16.1475 17.7869C16.1475 12.2951 20.5738 7.86885 26.0246 7.86885C31.5164 7.86885 35.9426 12.3361 35.9426 17.7869C35.9426 23.2787 31.4754 27.7049 26.0246 27.7049C20.5738 27.7049 16.1475 23.2377 16.1475 17.7869ZM26.6394 15.2869C26.6394 17.0082 27.9918 18.4016 29.7541 18.4016C31.4344 18.4016 32.8279 17.0082 32.8279 15.2869C32.8279 13.6066 31.4754 12.2131 29.7541 12.2131C28.0328 12.2131 26.6394 13.5656 26.6394 15.2869Z" fill="#300E44"/>
</svg>
