<svg width="698" height="471" viewBox="0 0 698 471" fill="none" xmlns="http://www.w3.org/2000/svg">
<path d="M18.0829 0C8.09599 0 0 8.0795 0 18.046V452.954C0 462.921 8.09596 471 18.0829 471H698V0H18.0829Z" fill="white"/>
<path d="M190.215 197H196.695V225H190.215V197ZM177.495 225H171.015V197H177.495V225ZM190.695 213.52H177.015V208.04H190.695V213.52ZM209.67 208.28H223.15V213.32H209.67V208.28ZM210.15 219.8H225.39V225H203.71V197H224.87V202.2H210.15V219.8ZM241.953 225V197H247.313L259.233 216.76H256.393L268.113 197H273.473L273.513 225H267.433L267.393 206.32H268.553L259.153 222.04H256.273L246.673 206.32H248.033V225H241.953ZM293.868 225.48C291.655 225.48 289.602 225.12 287.708 224.4C285.842 223.68 284.215 222.667 282.828 221.36C281.468 220.053 280.402 218.52 279.628 216.76C278.882 215 278.508 213.08 278.508 211C278.508 208.92 278.882 207 279.628 205.24C280.402 203.48 281.482 201.947 282.868 200.64C284.255 199.333 285.882 198.32 287.748 197.6C289.615 196.88 291.642 196.52 293.828 196.52C296.042 196.52 298.068 196.88 299.908 197.6C301.775 198.32 303.388 199.333 304.748 200.64C306.135 201.947 307.215 203.48 307.988 205.24C308.762 206.973 309.148 208.893 309.148 211C309.148 213.08 308.762 215.013 307.988 216.8C307.215 218.56 306.135 220.093 304.748 221.4C303.388 222.68 301.775 223.68 299.908 224.4C298.068 225.12 296.055 225.48 293.868 225.48ZM293.828 219.96C295.082 219.96 296.228 219.747 297.268 219.32C298.335 218.893 299.268 218.28 300.068 217.48C300.868 216.68 301.482 215.733 301.908 214.64C302.362 213.547 302.588 212.333 302.588 211C302.588 209.667 302.362 208.453 301.908 207.36C301.482 206.267 300.868 205.32 300.068 204.52C299.295 203.72 298.375 203.107 297.308 202.68C296.242 202.253 295.082 202.04 293.828 202.04C292.575 202.04 291.415 202.253 290.348 202.68C289.308 203.107 288.388 203.72 287.588 204.52C286.788 205.32 286.162 206.267 285.708 207.36C285.282 208.453 285.068 209.667 285.068 211C285.068 212.307 285.282 213.52 285.708 214.64C286.162 215.733 286.775 216.68 287.548 217.48C288.348 218.28 289.282 218.893 290.348 219.32C291.415 219.747 292.575 219.96 293.828 219.96ZM314.14 225V197H333.9L333.86 202.28H319.06L320.54 200.8L320.58 225H314.14ZM338.811 219.72C340.358 220.173 341.651 220.307 342.691 220.12C343.758 219.907 344.704 219.16 345.531 217.88L346.891 215.84L347.491 215.16L356.771 197H363.131L351.211 219.16C350.144 221.16 348.878 222.693 347.411 223.76C345.971 224.827 344.384 225.427 342.651 225.56C340.918 225.72 339.118 225.413 337.251 224.64L338.811 219.72ZM347.371 220.56L334.731 197H341.651L350.931 215.8L347.371 220.56ZM397.325 197H403.805V225H397.325V197ZM384.605 225H378.125V197H384.605V225ZM397.805 213.52H384.125V208.04H397.805V213.52ZM407.66 225L420.14 197H426.54L439.06 225H432.26L422.02 200.28H424.58L414.3 225H407.66ZM413.9 219L415.62 214.08H430.02L431.78 219H413.9ZM442.773 225V197H449.213V215.24L462.573 197H468.653V225H462.253V206.8L448.893 225H442.773ZM455.693 195.2C453.026 195.2 451.066 194.667 449.813 193.6C448.586 192.533 447.96 191.027 447.933 189.08H452.373C452.4 190.04 452.68 190.773 453.213 191.28C453.773 191.76 454.6 192 455.693 192C456.76 192 457.573 191.76 458.133 191.28C458.693 190.773 458.986 190.04 459.013 189.08H463.453C463.426 191.027 462.786 192.533 461.533 193.6C460.28 194.667 458.333 195.2 455.693 195.2ZM481.665 225V200.8L483.145 202.28H472.745V197H497.025V202.28H486.625L488.065 200.8V225H481.665ZM501.093 225V197H507.533V215.24L520.893 197H526.973V225H520.573V206.8L507.213 225H501.093ZM302.26 272.24C298.634 272.24 295.554 271.76 293.02 270.8C290.514 269.84 288.607 268.453 287.3 266.64C285.994 264.8 285.34 262.56 285.34 259.92C285.34 257.28 285.994 255.053 287.3 253.24C288.607 251.4 290.514 250 293.02 249.04C295.554 248.08 298.634 247.6 302.26 247.6C302.314 247.6 302.46 247.6 302.7 247.6C302.967 247.6 303.22 247.6 303.46 247.6C303.727 247.6 303.874 247.6 303.9 247.6C307.5 247.6 310.54 248.08 313.02 249.04C315.527 250 317.42 251.4 318.7 253.24C319.98 255.08 320.62 257.307 320.62 259.92C320.62 262.507 319.98 264.733 318.7 266.6C317.447 268.44 315.594 269.84 313.14 270.8C310.714 271.76 307.74 272.24 304.22 272.24C304.14 272.24 303.954 272.24 303.66 272.24C303.367 272.24 303.074 272.24 302.78 272.24C302.514 272.24 302.34 272.24 302.26 272.24ZM302.86 267.24C302.94 267.24 303.047 267.24 303.18 267.24C303.314 267.24 303.407 267.24 303.46 267.24C305.914 267.24 307.94 266.973 309.54 266.44C311.167 265.88 312.38 265.067 313.18 264C313.98 262.907 314.38 261.533 314.38 259.88C314.38 258.227 313.967 256.867 313.14 255.8C312.314 254.733 311.1 253.947 309.5 253.44C307.927 252.907 305.94 252.64 303.54 252.64C303.487 252.64 303.38 252.64 303.22 252.64C303.087 252.64 302.967 252.64 302.86 252.64C300.327 252.64 298.234 252.893 296.58 253.4C294.927 253.907 293.687 254.707 292.86 255.8C292.034 256.867 291.62 258.24 291.62 259.92C291.62 261.6 292.06 262.987 292.94 264.08C293.82 265.147 295.087 265.947 296.74 266.48C298.42 266.987 300.46 267.24 302.86 267.24ZM300.02 275.24V244.8H305.98V275.24H300.02ZM338.868 274.48C336.655 274.48 334.602 274.12 332.708 273.4C330.842 272.68 329.215 271.667 327.828 270.36C326.468 269.053 325.402 267.52 324.628 265.76C323.882 264 323.508 262.08 323.508 260C323.508 257.92 323.882 256 324.628 254.24C325.402 252.48 326.482 250.947 327.868 249.64C329.255 248.333 330.882 247.32 332.748 246.6C334.615 245.88 336.642 245.52 338.828 245.52C341.042 245.52 343.068 245.88 344.908 246.6C346.775 247.32 348.388 248.333 349.748 249.64C351.135 250.947 352.215 252.48 352.988 254.24C353.762 255.973 354.148 257.893 354.148 260C354.148 262.08 353.762 264.013 352.988 265.8C352.215 267.56 351.135 269.093 349.748 270.4C348.388 271.68 346.775 272.68 344.908 273.4C343.068 274.12 341.055 274.48 338.868 274.48ZM338.828 268.96C340.082 268.96 341.228 268.747 342.268 268.32C343.335 267.893 344.268 267.28 345.068 266.48C345.868 265.68 346.482 264.733 346.908 263.64C347.362 262.547 347.588 261.333 347.588 260C347.588 258.667 347.362 257.453 346.908 256.36C346.482 255.267 345.868 254.32 345.068 253.52C344.295 252.72 343.375 252.107 342.308 251.68C341.242 251.253 340.082 251.04 338.828 251.04C337.575 251.04 336.415 251.253 335.348 251.68C334.308 252.107 333.388 252.72 332.588 253.52C331.788 254.32 331.162 255.267 330.708 256.36C330.282 257.453 330.068 258.667 330.068 260C330.068 261.307 330.282 262.52 330.708 263.64C331.162 264.733 331.775 265.68 332.548 266.48C333.348 267.28 334.282 267.893 335.348 268.32C336.415 268.747 337.575 268.96 338.828 268.96ZM364.79 274V249.8L366.27 251.28H355.87V246H380.15V251.28H369.75L371.19 249.8V274H364.79ZM397.228 274.48C395.014 274.48 392.961 274.12 391.068 273.4C389.201 272.68 387.574 271.667 386.188 270.36C384.828 269.053 383.761 267.52 382.988 265.76C382.241 264 381.868 262.08 381.868 260C381.868 257.92 382.241 256 382.988 254.24C383.761 252.48 384.841 250.947 386.228 249.64C387.614 248.333 389.241 247.32 391.108 246.6C392.974 245.88 395.001 245.52 397.188 245.52C399.401 245.52 401.428 245.88 403.268 246.6C405.134 247.32 406.748 248.333 408.108 249.64C409.494 250.947 410.574 252.48 411.348 254.24C412.121 255.973 412.508 257.893 412.508 260C412.508 262.08 412.121 264.013 411.348 265.8C410.574 267.56 409.494 269.093 408.108 270.4C406.748 271.68 405.134 272.68 403.268 273.4C401.428 274.12 399.414 274.48 397.228 274.48ZM397.188 268.96C398.441 268.96 399.588 268.747 400.628 268.32C401.694 267.893 402.628 267.28 403.428 266.48C404.228 265.68 404.841 264.733 405.268 263.64C405.721 262.547 405.948 261.333 405.948 260C405.948 258.667 405.721 257.453 405.268 256.36C404.841 255.267 404.228 254.32 403.428 253.52C402.654 252.72 401.734 252.107 400.668 251.68C399.601 251.253 398.441 251.04 397.188 251.04C395.934 251.04 394.774 251.253 393.708 251.68C392.668 252.107 391.748 252.72 390.948 253.52C390.148 254.32 389.521 255.267 389.068 256.36C388.641 257.453 388.428 258.667 388.428 260C388.428 261.307 388.641 262.52 389.068 263.64C389.521 264.733 390.134 265.68 390.908 266.48C391.708 267.28 392.641 267.893 393.708 268.32C394.774 268.747 395.934 268.96 397.188 268.96Z" fill="#3D1257"/>
</svg>
