<svg width="22" height="22" viewBox="0 0 22 22" fill="none" xmlns="http://www.w3.org/2000/svg">
<path d="M2.44445 8.55557C2.44445 5.18049 5.18049 2.44445 8.55557 2.44445C11.9306 2.44445 14.6667 5.18049 14.6667 8.55557C14.6667 11.9306 11.9306 14.6667 8.55557 14.6667C5.18049 14.6667 2.44445 11.9306 2.44445 8.55557ZM8.55557 0C3.83046 0 0 3.83046 0 8.55557C0 13.2807 3.83046 17.1111 8.55557 17.1111C10.4773 17.1111 12.2511 16.4775 13.6794 15.4078L19.9136 21.642C20.3909 22.1193 21.1648 22.1193 21.642 21.642C22.1193 21.1648 22.1193 20.3909 21.642 19.9136L15.4078 13.6794C16.4775 12.2511 17.1111 10.4773 17.1111 8.55557C17.1111 3.83046 13.2807 0 8.55557 0Z" fill="#3D1257"/>
</svg>
