<svg width="52" height="50" viewBox="0 0 52 50" fill="none" xmlns="http://www.w3.org/2000/svg">
<path d="M0.631348 25C0.631348 11.1929 12.1306 0 26.3156 0C40.5006 0 51.9998 11.1929 51.9998 25C51.9998 38.8071 40.5006 50 26.3156 50C12.1306 50 0.631348 38.8071 0.631348 25Z" fill="#3D1257"/>
<path d="M36.5892 15.7528L32.7296 35.3653C32.7296 35.3653 32.1896 36.7251 30.7061 36.073L21.801 29.1907L21.7597 29.1704C22.9626 28.0817 32.2902 19.6283 32.6979 19.2452C33.329 18.6517 32.9372 18.2984 32.2044 18.7467L18.4264 27.5662L13.1108 25.7635C13.1108 25.7635 12.2743 25.4635 12.1939 24.8114C12.1123 24.1582 13.1384 23.8049 13.1384 23.8049L34.8082 15.2362C34.8082 15.2362 36.5892 14.4474 36.5892 15.7528Z" fill="#FEFEFE"/>
</svg>
