<svg width="52" height="50" viewBox="0 0 52 50" fill="none" xmlns="http://www.w3.org/2000/svg">
<path d="M0 25C0 11.1929 11.4992 0 25.6842 0C39.8692 0 51.3684 11.1929 51.3684 25C51.3684 38.8071 39.8692 50 25.6842 50C11.4992 50 0 38.8071 0 25Z" fill="#3D1257"/>
<path d="M26.946 33.75C17.2931 33.75 11.7873 27.1809 11.5579 16.25H16.3931C16.552 24.273 20.1166 27.6714 22.9401 28.3721V16.25H27.493V23.1694C30.2812 22.8716 33.2106 19.7185 34.1988 16.25H38.7517C38.3793 18.0488 37.637 19.7521 36.5712 21.2531C35.5054 22.7542 34.1391 24.0208 32.5577 24.9737C34.3229 25.8444 35.8821 27.0769 37.1323 28.5897C38.3825 30.1025 39.2953 31.8613 39.8105 33.75H34.7988C34.3363 32.1095 33.3964 30.641 32.0968 29.5285C30.7971 28.4161 29.1957 27.7091 27.493 27.4962V33.75H26.946Z" fill="white"/>
</svg>
