<svg width="129" height="22" viewBox="0 0 129 22" fill="none" xmlns="http://www.w3.org/2000/svg">
<g clip-path="url(#clip0_224_36)">
<path d="M38.9965 13.649C38.9965 15.3191 37.4108 16.5286 35.1791 16.5286H29.9521V6.16211H35.0029C37.1759 6.16211 38.7029 7.31395 38.7029 8.9265C38.7029 10.0207 38.1156 10.7118 37.2346 11.115C38.1743 11.4605 38.9965 12.382 38.9965 13.649ZM32.2426 8.06263V10.3087H34.9442C35.7664 10.3087 36.295 9.84798 36.295 9.21447C36.295 8.58096 35.7076 8.06263 34.9442 8.06263H32.2426ZM35.1791 14.6281C36.0601 14.6281 36.7061 14.1097 36.7061 13.3611C36.7061 12.6124 36.1188 12.094 35.1791 12.094H32.2426V14.6281H35.1791Z" fill="black"/>
<path d="M47.6294 16.471L43.9883 12.382H43.401V16.471H41.0518V6.16211H43.401V10.1359H43.9883L47.512 6.16211H50.2725L45.8676 11.115L50.6833 16.471H47.6294Z" fill="black"/>
<path d="M50.6836 11.3453C50.6836 8.23532 53.0332 5.98926 56.3217 5.98926C59.6108 5.98926 61.9599 8.23532 61.9599 11.3453C61.9599 14.4552 59.6108 16.7013 56.3217 16.7013C53.0332 16.7013 50.6836 14.4552 50.6836 11.3453ZM59.4935 11.3453C59.4935 9.38716 58.2011 8.06257 56.3217 8.06257C54.4424 8.06257 53.1505 9.38716 53.1505 11.3453C53.1505 13.3034 54.4424 14.628 56.3217 14.628C58.2011 14.628 59.4935 13.3034 59.4935 11.3453Z" fill="black"/>
<path d="M70.9453 6.16211H73.2948V16.471H70.9453V12.3244H66.2471V16.471H63.8979V6.16211H66.2471V10.2511H70.9453V6.16211Z" fill="black"/>
<path d="M78.3455 16.471V8.23538H74.7041V6.16211H84.2772V8.23538H80.6358V16.471H78.3455Z" fill="black"/>
<path d="M94.3786 10.7118V16.4709H92.6754L92.2057 14.8584C91.6771 15.7222 90.5614 16.7013 88.8582 16.7013C86.7438 16.7013 85.2168 15.3191 85.2168 13.4186C85.2168 11.518 86.7438 10.1935 89.8566 10.1935H92.1468C92.0295 8.86883 91.3247 7.9474 90.0328 7.9474C88.9756 7.9474 88.2707 8.52329 87.9183 9.1568L85.8043 8.81126C86.3329 7.02592 88.1534 5.98926 90.1501 5.98926C92.7343 5.98926 94.3786 7.71699 94.3786 10.7118ZM92.0884 11.9788H89.9155C88.1534 11.9788 87.5659 12.5547 87.5659 13.3034C87.5659 14.1673 88.2707 14.7432 89.4453 14.7432C90.9723 14.7432 92.0884 13.649 92.0884 11.9788Z" fill="black"/>
<path d="M103.423 16.471L99.7818 12.382H99.1943V16.471H96.8452V6.16211H99.1943V10.1359H99.7818L103.306 6.16211H106.066L101.661 11.115L106.477 16.471H103.423Z" fill="black"/>
<path d="M110.705 16.471V8.23538H107.064V6.16211H116.638V8.23538H112.996V16.471H110.705Z" fill="black"/>
<path d="M128.383 11.9788H119.926C120.161 13.5914 121.336 14.628 123.097 14.628C124.331 14.628 125.271 14.1097 125.799 13.361L127.972 13.7065C127.208 15.6647 125.153 16.7013 122.921 16.7013C119.75 16.7013 117.459 14.4552 117.459 11.3453C117.459 8.23532 119.75 5.98926 122.921 5.98926C126.093 5.98926 128.383 8.23532 128.383 11.2301C128.442 11.518 128.383 11.7484 128.383 11.9788ZM120.102 10.1935H125.916C125.505 8.92644 124.448 8.00496 122.98 8.00496C121.57 7.9474 120.455 8.86883 120.102 10.1935Z" fill="black"/>
<path d="M0 10.56C0 5.58195 0 3.09295 1.57704 1.54648C3.15408 0 5.69227 0 10.7687 0H11.6661C16.7425 0 19.2807 0 20.8578 1.54648C22.4348 3.09295 22.4348 5.58195 22.4348 10.56V11.44C22.4348 16.4181 22.4348 18.907 20.8578 20.4535C19.2807 22 16.7425 22 11.6661 22H10.7687C5.69227 22 3.15408 22 1.57704 20.4535C0 18.907 0 16.4181 0 11.44V10.56Z" fill="#0077FF"/>
<path d="M11.9374 15.8489C6.82413 15.8489 3.90765 12.4114 3.78613 6.69141H6.34744C6.43157 10.8897 8.31978 12.6681 9.81543 13.0347V6.69141H12.2273V10.3122C13.7042 10.1564 15.2558 8.50641 15.7793 6.69141H18.191C17.7891 8.92807 16.1065 10.5781 14.91 11.2564C16.1065 11.8064 18.0229 13.2456 18.752 15.8489H16.0971C15.5269 14.1072 14.1062 12.7597 12.2273 12.5764V15.8489H11.9374Z" fill="white"/>
</g>
<defs>
<clipPath id="clip0_224_36">
<rect width="129" height="22" fill="white"/>
</clipPath>
</defs>
</svg>
